Coordinates
version=1
nRows=17
nColumns=24
inDegrees=yes

Units are S.I. units (second, meters, Newtons, ...)
If the header above contains a line with 'inDegrees', this indicates whether rotational values are in degrees (yes) or radians (no).

endheader
time	pelvis_tilt	pelvis_list	pelvis_rotation	pelvis_tx	pelvis_ty	pelvis_tz	hip_flexion_r	hip_adduction_r	hip_rotation_r	knee_angle_r	ankle_angle_r	subtalar_angle_r	mtp_angle_r	hip_flexion_l	hip_adduction_l	hip_rotation_l	knee_angle_l	ankle_angle_l	subtalar_angle_l	mtp_angle_l	lumbar_extension	lumbar_bending	lumbar_rotation
      2.25000000000000000000	      8.90268212215979026780	     -9.59723887602826053467	     -5.19252602942382779361	      0.59051590386911489983	      1.05519416614556393874	      0.05161409259023061469	    -10.80154749163738792106	     10.06496659861476317133	     10.01646158560085986267	     -5.25583584876936349417	     -2.49423528548486439504	      0.82495721153328538389	      3.65552143056029921198	     17.22464095618729018611	    -17.60044490874084033294	     -6.91866534086680751159	    -54.51988197040932249138	      1.06491948906944022823	     16.61905547882262723647	      3.79967575476214536323	    -19.96413587126950872630	     10.36161119261433505301	      9.40457747903444207793
      2.26699999999999990408	      8.62353162571313802687	     -9.70511207338451242777	     -5.58956681667993837692	      0.58750685654264334090	      1.05439591323318704319	      0.05102776824026040298	    -11.67803779152869836366	      9.90918380848453850263	     10.27274467743040631262	     -5.16293759552723940942	     -1.46401736991881614713	      1.39463650163488495082	      3.73196908459200615837	     17.98433759510170659723	    -17.38333711983962359682	     -6.76869491085568864008	    -49.13919785542608309470	      0.42979940782292880286	     15.46579791936886572046	      3.78613864339905470402	    -19.93422780160210550093	     10.39636503381428589421	      9.82421842482506768590
      2.28299999999999991829	      8.15906091623613427544	     -9.81130357433764110908	     -5.79925074292285103184	      0.58467630381912627513	      1.05321059728854771187	      0.05047091750246594094	    -12.30266738912173885012	      9.81875227959632823627	     10.27311047506021957076	     -5.07152085671647245846	     -0.64445203742750489795	      2.05230735749917991839	      3.84233955324576337276	     18.51593152099385619636	    -17.07662437513720021798	     -6.31383755385095390977	    -42.79493827297232400042	     -0.55774949172417198628	     13.78503006066376457284	      3.98763024524567954998	    -19.66117361053045797803	     10.47025095358300106341	      9.79442857247459564007
      2.29999999999999982236	      7.46794578228341787707	    -10.30060224310567384975	     -5.19420248193684308546	      0.58239631499702104733	      1.05067356606977169164	      0.04857447494976165070	    -12.72529404431297450628	     10.36764964128041732749	      9.39822496221672842864	     -4.93080484251416795161	     -0.08796458818809391178	      2.28972131383068200350	      3.88810409998956574285	     19.50256686489074908764	    -16.90803377768986592855	     -4.71776756168212951792	    -36.55423282954078700868	     -1.58805471606555625996	     12.05064088749142747758	      4.29059839843914136992	    -19.06310705357216050970	     11.21870076528625048695	      9.24255890023166593039
      2.31700000000000017053	      6.03277049608298732153	    -10.94175908906049343727	     -5.43224560950321322395	      0.57976837410158565955	      1.04657497289635648130	      0.04872551515039453413	    -12.56952148499228094636	     10.97419552841799550436	     10.50142397398908045147	     -4.39302479219508335007	      0.20378475353094130385	      1.79227629508540320380	      4.01766523727593138915	     20.77676826150182876063	    -17.35952928630903713270	     -3.97960465859244827413	    -29.87032979334505000679	     -2.95178822014526343054	     10.42164133807992776326	      4.81533474542526995776	    -17.71629949141016524550	     11.92543719735039431384	      9.70993405370630924267
      2.33300000000000018474	      3.76834353268238197998	    -12.14593581885635664719	     -4.18393553209617330424	      0.57886478171117028424	      1.04020619099051847556	      0.04561786834057548340	    -11.36484862167726284099	     12.47723176536984190932	      9.14012736648022894315	     -4.47143400228384635398	      1.14191797287482876833	      2.69509837976661881243	      4.08471645702606345196	     23.56055044118953034626	    -17.73618090871792674079	     -1.06465217575659876204	    -23.54580838665811981514	     -4.23092731431510227225	      9.53368043957581789982	      6.72044861499314460929	    -15.03502464748305023079	     13.89380839645058784981	      8.34316146829607241386
      2.35000000000000008882	      2.61798774411294221665	    -12.90142583517544316862	     -4.12314899915135946173	      0.57582417252128392793	      1.03583467660609374050	      0.04310741661245971745	    -11.12483383706977235761	     13.11951736591752570860	      8.37665561910366740506	     -4.79433677014356440793	      2.11646988747729425384	      3.95762409125293102008	      4.31953744834512942674	     24.09133639036296870017	    -17.97103023737409799310	      0.81129229018211934665	    -16.08570678891825167511	     -6.30645240550774843769	      7.60403656410733308491	      7.14411137503713344898	    -14.14395602445168975692	     14.91714249777559331278	      8.00414483573472601563
      2.36699999999999999289	      1.48979352796060315889	    -14.05254929460725321633	     -3.28532480129217363540	      0.57459156777842390618	      1.03087579019947628289	      0.04004627251061364246	    -11.21870546748751706900	     14.30036530598332866759	      7.79289613963100968874	     -4.69903184591024203343	      2.76544395182234170605	      4.39516659666545983498	      4.23039806620071345833	     24.91068929694288414112	    -18.45881530704193806969	      3.53864144636660604704	     -9.29103913825317562214	     -8.18762496484495372329	      6.46100185861150055899	      7.85236620971494581056	    -12.90274486168847190015	     16.37994450193825457518	      6.64268756020543982288
      2.38300000000000000711	      0.53643604139531320119	    -14.73581992420547415179	     -2.89361334647888712723	      0.57363352601815031928	      1.02648424016484751675	      0.03702796722471395074	    -11.32142497454563923043	     14.87259797129709681940	      6.90176594061006731806	     -4.83168999498717166574	      3.49694502799259288039	      5.46876512523511504327	      4.40754822624519260188	     25.09657392962238375844	    -18.63481923132551543176	      6.34135170069760967237	     -2.99415766244560899167	    -10.27872281942361176732	      3.86364273617320774790	      8.52795113596137532852	    -11.80142852344250670171	     17.36101708198539483874	      5.77045038826358069883
      2.39999999999999991118	     -0.49836195023283136329	    -15.43145227125026508475	     -2.78606200550373195313	      0.57392459935602224697	      1.02212708575057886762	      0.03565246672303231529	    -11.70184016582730635037	     15.46462186249335069022	      7.31677783667356607111	     -4.30250162581706430132	      3.35993025645221665698	      5.42435657997309483846	      5.90704001380095800045	     25.53104948172926214056	    -19.15376991203422818444	      8.47168758383236841780	      1.66455179786518026042	    -12.65431117907399283240	      2.02936610547442164432	     18.95891378744781263777	    -10.53666980351512627578	     18.10074936555163205298	      5.54272430797256365764
      2.41699999999999981526	     -0.35480374643162887471	    -15.94620885311477564983	     -2.48345559896962653212	      0.57401091262222847522	      1.01973742412354928533	      0.03391183281292430018	    -12.90010377641825023431	     15.92422729143115489592	      6.64031749628902190352	     -4.63586548521759489461	      3.45631184504374511235	      5.73858428583072388562	      5.88572466379050407426	     25.11907230853470096577	    -19.49196904230240079414	      9.64617029315592056093	      4.30763888401822736540	    -13.11920469424824275961	      2.24124791828697222940	     18.96877717178899303008	    -10.69432164334093116054	     18.59563935234325171564	      5.36694001058715297603
      2.43299999999999982947	     -0.00410544792748373383	    -16.20849526749782398838	     -2.17693424090040243968	      0.57425251255925391369	      1.01757408174418229052	      0.03143381617007243861	    -14.33994452032637312300	     15.91514252895398584542	      6.24202568860776452198	     -4.86038188944190707730	      3.97509204893600820441	      6.90793681194235809073	      6.03374001370721924076	     25.10528785491284864406	    -19.36149100456004745752	     10.52454435227015672183	      4.31026229777354163986	    -12.26842837370070959935	      3.03621548760764303765	     19.09252541379543188782	    -10.97875278131791532132	     18.71779382693463844589	      4.96653526347921125961
      2.45000000000000017764	      0.28254559788017913347	    -16.37923989717342720951	     -2.51762728055899875912	      0.57489382379120312905	      1.01610279986995255541	      0.02971585930799859263	    -15.36715758129224163042	     15.69782626779668177619	      6.10587933648415415178	     -5.98290298055482328010	      4.57609422520202535623	      8.24584964837548994865	      6.34168595946949587017	     25.35008681975610045356	    -19.29315601079436959253	     10.25133823378627795364	      2.30952331214716499730	    -11.16229343260526185588	      4.75309946156891705016	     19.26799150077024691541	    -11.41186200547673124106	     18.71250513529538750390	      5.47580636604985659943
      2.46700000000000008171	      0.75330413857439115777	    -16.35501286295072986832	     -2.72137183483808442475	      0.57587103055784361061	      1.01500662611831482529	      0.02784970488680650960	    -16.44072825899817047457	     15.32250433895703167764	      6.08627160149273915835	     -7.08658488596771451995	      4.38429424726991445738	      8.88081215052329042692	      6.83963446499045790716	     25.66466113494293566077	    -18.83551194787970928246	      9.44931576663447181375	     -0.88681068515706840127	    -10.49573316796339028656	      6.67991793266226352443	     19.45607503192415776994	    -11.91206018898961005448	     18.42329456760470662857	      5.87258391337711938007
      2.48300000000000009592	      1.12074381529463584783	    -16.48262884498175750991	     -2.27024609832801838039	      0.57786865672201170874	      1.01368450395720999246	      0.02556744620604766566	    -17.35533717503666650828	     15.32770811478742700729	      5.77297735862010252816	     -8.23242802930183081855	      4.03784610047550973633	      8.90549701677325700189	      7.43246731802744786677	     26.37695244938533178924	    -18.27984833690836907749	      9.23028138918032503568	     -4.69435447535557681675	    -10.37759281732526162045	      8.04088694501739986720	     19.59418251963363388768	    -12.15642316490431440457	     18.36327280771537218129	      5.27854930382826381674
      2.50000000000000000000	      1.42360680907981218546	    -16.42350730027817817813	     -2.82048417589130551164	      0.57996269268287947707	      1.01382331212997423009	      0.02510201535362981476	    -18.02066016949092741584	     14.88934468227164131804	      6.28478391444335215965	     -9.84643363475045418909	      3.06949940566358447924	      9.15704739500700526378	      9.01411699624202178427	     26.51456417621430006193	    -18.13138220678603929059	      7.15419840519229133236	     -8.11707039377240313627	    -11.00169281679285226971	      9.47979426186603824078	     19.80924212771687820123	    -12.43445877106265484713	     17.84539206089278096101	      5.90575437852645634962
      2.51699999999999990408	      2.02697367987601895223	    -16.48458361859750809231	     -1.88863798900132295877	      0.58327201518566151872	      1.01399887018256062987	      0.02314117508670905307	    -18.65382966337309511573	     15.04070761234720876587	      5.03142819800303620070	    -11.83676124753452896243	      1.61847149489069708217	      9.44392844360642769175	     10.52766510311912639963	     26.89082190918420423031	    -17.67333187415744077953	      6.69632921898542932126	    -11.72861781929668545388	    -11.23884182493895522725	     10.84641075812670862888	     20.22763517371583574800	    -12.52801859109812099291	     17.57926697904852986198	      4.49617516684931128879
